<svg xmlns="http://www.w3.org/2000/svg" width="960" height="580" viewBox="0 0 960 580">
<rect width="100%" height="100%" fill="#ffffff"/><defs><marker id="ar" viewBox="0 0 10 10" refX="9" refY="5" markerWidth="7" markerHeight="7" orient="auto-start-reverse"><path d="M 0 0 L 10 5 L 0 10 z" fill="#607080"/></marker></defs>
<rect x="280" y="16" width="660" height="128" rx="10" fill="#f7f8fa" stroke="#e3e7ec" stroke-width="1.2"/>
<text x="926" y="38" font-family="PingFang SC, Microsoft YaHei, Noto Sans SC, sans-serif" font-size="13.5" fill="#5a6b7b" text-anchor="end" font-weight="normal">前端</text>
<rect x="400" y="48" width="420" height="76" rx="8" fill="#d9ecff" stroke="#2b7fd4" stroke-width="1.2"/>
<text x="610.0" y="80.75" font-family="PingFang SC, Microsoft YaHei, Noto Sans SC, sans-serif" font-size="14" fill="#1f2d3d" text-anchor="middle" font-weight="normal">页面：登录 / 首页 / 实验室 / 设备 / 预约 / AI 助手</text>
<text x="610.0" y="101.05" font-family="PingFang SC, Microsoft YaHei, Noto Sans SC, sans-serif" font-size="14" fill="#1f2d3d" text-anchor="middle" font-weight="normal">（图片点击预览 · 对话本地持久化 · 打字机输出）</text>
<rect x="280" y="190" width="660" height="196" rx="10" fill="#f7f8fa" stroke="#e3e7ec" stroke-width="1.2"/>
<text x="926" y="212" font-family="PingFang SC, Microsoft YaHei, Noto Sans SC, sans-serif" font-size="13.5" fill="#5a6b7b" text-anchor="end" font-weight="normal">后端 FastAPI</text>
<rect x="310" y="226" width="250" height="62" rx="8" fill="#d9ecff" stroke="#2b7fd4" stroke-width="1.2"/>
<text x="435.0" y="251.9375" font-family="PingFang SC, Microsoft YaHei, Noto Sans SC, sans-serif" font-size="13.5" fill="#1f2d3d" text-anchor="middle" font-weight="normal">AI API</text>
<text x="435.0" y="271.5125" font-family="PingFang SC, Microsoft YaHei, Noto Sans SC, sans-serif" font-size="13.5" fill="#1f2d3d" text-anchor="middle" font-weight="normal">/api/ai/chat · /chat/stream</text>
<rect x="600" y="226" width="310" height="62" rx="8" fill="#d9ecff" stroke="#2b7fd4" stroke-width="1.2"/>
<text x="755.0" y="251.9375" font-family="PingFang SC, Microsoft YaHei, Noto Sans SC, sans-serif" font-size="13.5" fill="#1f2d3d" text-anchor="middle" font-weight="normal">业务 API</text>
<text x="755.0" y="271.5125" font-family="PingFang SC, Microsoft YaHei, Noto Sans SC, sans-serif" font-size="13.5" fill="#1f2d3d" text-anchor="middle" font-weight="normal">auth / user / lab / equipment / reservation / files</text>
<rect x="430" y="316" width="340" height="52" rx="8" fill="#d9ecff" stroke="#2b7fd4" stroke-width="1.2"/>
<text x="600.0" y="346.725" font-family="PingFang SC, Microsoft YaHei, Noto Sans SC, sans-serif" font-size="13.5" fill="#1f2d3d" text-anchor="middle" font-weight="normal">Service 层（业务逻辑 + Agent 工具实现）</text>
<line x1="435" y1="288" x2="530" y2="314" stroke="#607080" stroke-width="1.4" marker-end="url(#ar)"/>
<line x1="755" y1="288" x2="670" y2="314" stroke="#607080" stroke-width="1.4" marker-end="url(#ar)"/>
<rect x="16" y="246" width="236" height="116" rx="10" fill="#f7f8fa" stroke="#e3e7ec" stroke-width="1.2"/>
<text x="238" y="268" font-family="PingFang SC, Microsoft YaHei, Noto Sans SC, sans-serif" font-size="13.5" fill="#5a6b7b" text-anchor="end" font-weight="normal">外部模型</text>
<rect x="36" y="288" width="196" height="56" rx="8" fill="#d9ecff" stroke="#2b7fd4" stroke-width="1.2"/>
<text x="134.0" y="310.9375" font-family="PingFang SC, Microsoft YaHei, Noto Sans SC, sans-serif" font-size="13.5" fill="#1f2d3d" text-anchor="middle" font-weight="normal">大模型 API</text>
<text x="134.0" y="330.5125" font-family="PingFang SC, Microsoft YaHei, Noto Sans SC, sans-serif" font-size="13.5" fill="#1f2d3d" text-anchor="middle" font-weight="normal">OpenAI 兼容接口</text>
<line x1="310" y1="257" x2="200" y2="300" stroke="#607080" stroke-width="1.4" marker-end="url(#ar)"/>
<text x="255.0" y="268.5" font-family="PingFang SC, Microsoft YaHei, Noto Sans SC, sans-serif" font-size="13" fill="#5a6b7b" text-anchor="middle" font-weight="normal">LLM 调用</text>
<rect x="280" y="430" width="660" height="134" rx="10" fill="#f7f8fa" stroke="#e3e7ec" stroke-width="1.2"/>
<text x="926" y="452" font-family="PingFang SC, Microsoft YaHei, Noto Sans SC, sans-serif" font-size="13.5" fill="#5a6b7b" text-anchor="end" font-weight="normal">数据层</text>
<rect x="305.0" y="467" width="170" height="70" rx="0" fill="#d9ecff" stroke="#2b7fd4" stroke-width="0"/>
<rect x="305.0" y="467" width="170" height="70" rx="0" fill="#d9ecff" stroke="none" stroke-width="0"/>
<path d="M 305.0 467 L 305.0 537 A 85.0 11 0 0 0 475.0 537 L 475.0 467" fill="#d9ecff" stroke="#2b7fd4" stroke-width="1.2"/>
<ellipse cx="390" cy="467" rx="85.0" ry="11" fill="#d9ecff" stroke="#2b7fd4" stroke-width="1.2"/>
<text x="390" y="502.95" font-family="PingFang SC, Microsoft YaHei, Noto Sans SC, sans-serif" font-size="13" fill="#1f2d3d" text-anchor="middle" font-weight="normal">MySQL</text>
<text x="390" y="521.15" font-family="PingFang SC, Microsoft YaHei, Noto Sans SC, sans-serif" font-size="13" fill="#1f2d3d" text-anchor="middle" font-weight="normal">用户/实验室/设备/预约</text>
<rect x="505.0" y="467" width="170" height="70" rx="0" fill="#d9ecff" stroke="#2b7fd4" stroke-width="0"/>
<rect x="505.0" y="467" width="170" height="70" rx="0" fill="#d9ecff" stroke="none" stroke-width="0"/>
<path d="M 505.0 467 L 505.0 537 A 85.0 11 0 0 0 675.0 537 L 675.0 467" fill="#d9ecff" stroke="#2b7fd4" stroke-width="1.2"/>
<ellipse cx="590" cy="467" rx="85.0" ry="11" fill="#d9ecff" stroke="#2b7fd4" stroke-width="1.2"/>
<text x="590" y="502.95" font-family="PingFang SC, Microsoft YaHei, Noto Sans SC, sans-serif" font-size="13" fill="#1f2d3d" text-anchor="middle" font-weight="normal">ChromaDB</text>
<text x="590" y="521.15" font-family="PingFang SC, Microsoft YaHei, Noto Sans SC, sans-serif" font-size="13" fill="#1f2d3d" text-anchor="middle" font-weight="normal">知识库向量</text>
<rect x="690" y="470" width="230" height="66" rx="8" fill="#d8f3e4" stroke="#1f9e6e" stroke-width="1.2"/>
<text x="805.0" y="498.125" font-family="PingFang SC, Microsoft YaHei, Noto Sans SC, sans-serif" font-size="13" fill="#1f2d3d" text-anchor="middle" font-weight="normal">本地模型目录 data/models</text>
<text x="805.0" y="516.975" font-family="PingFang SC, Microsoft YaHei, Noto Sans SC, sans-serif" font-size="13" fill="#1f2d3d" text-anchor="middle" font-weight="normal">bge-small-zh-v1.5 离线加载</text>
<line x1="520" y1="368" x2="420" y2="452" stroke="#607080" stroke-width="1.4" marker-end="url(#ar)"/>
<line x1="600" y1="368" x2="590" y2="452" stroke="#607080" stroke-width="1.4" stroke-dasharray="5,4" marker-end="url(#ar)"/>
<line x1="720" y1="368" x2="780" y2="466" stroke="#607080" stroke-width="1.4" stroke-dasharray="5,4" marker-end="url(#ar)"/>
</svg>
