<svg xmlns="http://www.w3.org/2000/svg" width="780" height="440" viewBox="0 0 780 440">
<rect width="100%" height="100%" fill="#ffffff"/><defs><marker id="ar" viewBox="0 0 10 10" refX="9" refY="5" markerWidth="7" markerHeight="7" orient="auto-start-reverse"><path d="M 0 0 L 10 5 L 0 10 z" fill="#607080"/></marker></defs>
<circle cx="390" cy="36" r="9" fill="#4a5568"/>
<line x1="390" y1="45" x2="390" y2="82" stroke="#607080" stroke-width="1.4" marker-end="url(#ar)"/>
<text x="452" y="70" font-family="PingFang SC, Microsoft YaHei, Noto Sans SC, sans-serif" font-size="13.5" fill="#5a6b7b" text-anchor="middle" font-weight="normal">学生提交</text>
<rect x="310" y="86" width="160" height="54" rx="8" fill="#ffe9a8" stroke="#d99a17" stroke-width="1.2"/>
<text x="390.0" y="117.9" font-family="PingFang SC, Microsoft YaHei, Noto Sans SC, sans-serif" font-size="14" fill="#1f2d3d" text-anchor="middle" font-weight="bold">待审核 status=0</text>
<rect x="100" y="250" width="170" height="54" rx="8" fill="#d8f3e4" stroke="#1f9e6e" stroke-width="1.2"/>
<text x="185.0" y="281.9" font-family="PingFang SC, Microsoft YaHei, Noto Sans SC, sans-serif" font-size="14" fill="#1f2d3d" text-anchor="middle" font-weight="normal">已通过 status=1</text>
<rect x="315" y="250" width="170" height="54" rx="8" fill="#d9ecff" stroke="#2b7fd4" stroke-width="1.2"/>
<text x="400.0" y="281.9" font-family="PingFang SC, Microsoft YaHei, Noto Sans SC, sans-serif" font-size="14" fill="#1f2d3d" text-anchor="middle" font-weight="normal">已拒绝 status=2</text>
<rect x="530" y="250" width="170" height="54" rx="8" fill="#d9ecff" stroke="#2b7fd4" stroke-width="1.2"/>
<text x="615.0" y="281.9" font-family="PingFang SC, Microsoft YaHei, Noto Sans SC, sans-serif" font-size="14" fill="#1f2d3d" text-anchor="middle" font-weight="normal">已取消 status=3</text>
<line x1="330" y1="140" x2="190" y2="246" stroke="#607080" stroke-width="1.4" marker-end="url(#ar)"/>
<text x="260.0" y="185.0" font-family="PingFang SC, Microsoft YaHei, Noto Sans SC, sans-serif" font-size="13" fill="#5a6b7b" text-anchor="middle" font-weight="normal">管理员同意</text>
<line x1="390" y1="140" x2="385" y2="246" stroke="#607080" stroke-width="1.4" marker-end="url(#ar)"/>
<text x="387.5" y="215.0" font-family="PingFang SC, Microsoft YaHei, Noto Sans SC, sans-serif" font-size="13" fill="#5a6b7b" text-anchor="middle" font-weight="normal">管理员拒绝</text>
<line x1="450" y1="140" x2="590" y2="246" stroke="#607080" stroke-width="1.4" marker-end="url(#ar)"/>
<text x="520.0" y="185.0" font-family="PingFang SC, Microsoft YaHei, Noto Sans SC, sans-serif" font-size="13" fill="#5a6b7b" text-anchor="middle" font-weight="normal">学生取消（仅待审核可取消）</text>
<line x1="450" y1="140" x2="605" y2="246" stroke="#607080" stroke-width="1.4" stroke-dasharray="5,4" marker-end="url(#ar)"/>
<text x="640" y="176" font-family="PingFang SC, Microsoft YaHei, Noto Sans SC, sans-serif" font-size="12.5" fill="#5a6b7b" text-anchor="middle" font-weight="normal">过期未开始</text>
<text x="640" y="193" font-family="PingFang SC, Microsoft YaHei, Noto Sans SC, sans-serif" font-size="12.5" fill="#5a6b7b" text-anchor="middle" font-weight="normal">定时任务自动取消</text>
<circle cx="390" cy="380" r="10" fill="none" stroke="#4a5568" stroke-width="2"/>
<circle cx="390" cy="380" r="4.5" fill="#4a5568"/>
<line x1="185" y1="304" x2="390" y2="366" stroke="#607080" stroke-width="1.4" marker-end="url(#ar)"/>
<line x1="400" y1="304" x2="390" y2="366" stroke="#607080" stroke-width="1.4" marker-end="url(#ar)"/>
<line x1="615" y1="304" x2="390" y2="366" stroke="#607080" stroke-width="1.4" marker-end="url(#ar)"/>
</svg>
